{
  "accessors": [
    {
      "bufferView": 2,
      "componentType": 5126,
      "count": 200,
      "max": [
        0.6606450080871582,
        1.1308590173721313,
        5.902344226837158
      ],
      "min": [
        -0.6601560115814209,
        0.403564989566803,
        3.542968988418579
      ],
      "type": "VEC3"
    },
    {
      "bufferView": 2,
      "byteOffset": 2400,
      "componentType": 5126,
      "count": 200,
      "max": [
        0.9479029178619385,
        0.9999920129776001,
        0.5214495062828064
      ],
      "min": [
        -0.9477847814559937,
        0.2840449810028076,
        -0.058622609823942184
      ],
      "type": "VEC3"
    },
    {
      "bufferView": 1,
      "componentType": 5126,
      "count": 200,
      "max": [
        0.8969730138778687,
        0.9926760196685791
      ],
      "min": [
        0.10339400172233582,
        0.007996022701263428
      ],
      "type": "VEC2"
    },
    {
      "bufferView": 1,
      "byteOffset": 1600,
      "componentType": 5126,
      "count": 200,
      "max": [
        0.8969730138778687,
        0.9926760196685791
      ],
      "min": [
        0.10339400172233582,
        0.007996022701263428
      ],
      "type": "VEC2"
    },
    {
      "bufferView": 1,
      "byteOffset": 3200,
      "componentType": 5126,
      "count": 200,
      "max": [
        0.8969730138778687,
        0.9926760196685791
      ],
      "min": [
        0.10339400172233582,
        0.007996022701263428
      ],
      "type": "VEC2"
    },
    {
      "bufferView": 0,
      "componentType": 5125,
      "count": 1038,
      "type": "SCALAR"
    },
    {
      "bufferView": 2,
      "byteOffset": 4800,
      "componentType": 5126,
      "count": 3777,
      "max": [
        0.7099609971046448,
        1.088866949081421,
        6.175780773162842
      ],
      "min": [
        -0.7099609971046448,
        -0.22680699825286865,
        3.435547113418579
      ],
      "type": "VEC3"
    },
    {
      "bufferView": 2,
      "byteOffset": 50124,
      "componentType": 5126,
      "count": 3777,
      "max": [
        1.0,
        1.0,
        1.0
      ],
      "min": [
        -1.0,
        -1.0,
        -1.0
      ],
      "type": "VEC3"
    },
    {
      "bufferView": 3,
      "componentType": 5126,
      "count": 3777,
      "max": [
        1.0,
        1.0,
        1.0,
        1.0
      ],
      "min": [
        -1.0,
        -1.0,
        -1.0,
        -1.0
      ],
      "type": "VEC4"
    },
    {
      "bufferView": 1,
      "byteOffset": 4800,
      "componentType": 5126,
      "count": 3777,
      "max": [
        0.9985349774360657,
        -0.0023779869079589844
      ],
      "min": [
        0.0023560000117868185,
        -0.9995119571685791
      ],
      "type": "VEC2"
    },
    {
      "bufferView": 1,
      "byteOffset": 35016,
      "componentType": 5126,
      "count": 3777,
      "max": [
        0.9985349774360657,
        -0.0023779869079589844
      ],
      "min": [
        0.0023560000117868185,
        -0.9995119571685791
      ],
      "type": "VEC2"
    },
    {
      "bufferView": 1,
      "byteOffset": 65232,
      "componentType": 5126,
      "count": 3777,
      "max": [
        0.9985349774360657,
        -0.0023779869079589844
      ],
      "min": [
        0.0023560000117868185,
        -0.9995119571685791
      ],
      "type": "VEC2"
    },
    {
      "bufferView": 1,
      "byteOffset": 95448,
      "componentType": 5126,
      "count": 3777,
      "max": [
        0.9985349774360657,
        -0.0023779869079589844
      ],
      "min": [
        0.0023560000117868185,
        -0.9995119571685791
      ],
      "type": "VEC2"
    },
    {
      "bufferView": 1,
      "byteOffset": 125664,
      "componentType": 5126,
      "count": 3777,
      "max": [
        0.9985349774360657,
        -0.0023779869079589844
      ],
      "min": [
        0.0023560000117868185,
        -0.9995119571685791
      ],
      "type": "VEC2"
    },
    {
      "bufferView": 1,
      "byteOffset": 155880,
      "componentType": 5126,
      "count": 3777,
      "max": [
        0.9985349774360657,
        -0.0023779869079589844
      ],
      "min": [
        0.0023560000117868185,
        -0.9995119571685791
      ],
      "type": "VEC2"
    },
    {
      "bufferView": 1,
      "byteOffset": 186096,
      "componentType": 5126,
      "count": 3777,
      "max": [
        0.9985349774360657,
        -0.0023779869079589844
      ],
      "min": [
        0.0023560000117868185,
        -0.9995119571685791
      ],
      "type": "VEC2"
    },
    {
      "bufferView": 1,
      "byteOffset": 216312,
      "componentType": 5126,
      "count": 3777,
      "max": [
        0.9985349774360657,
        -0.0023779869079589844
      ],
      "min": [
        0.0023560000117868185,
        -0.9995119571685791
      ],
      "type": "VEC2"
    },
    {
      "bufferView": 1,
      "byteOffset": 246528,
      "componentType": 5126,
      "count": 3777,
      "max": [
        0.9985349774360657,
        -0.0023779869079589844
      ],
      "min": [
        0.0023560000117868185,
        -0.9995119571685791
      ],
      "type": "VEC2"
    },
    {
      "bufferView": 1,
      "byteOffset": 276744,
      "componentType": 5126,
      "count": 3777,
      "max": [
        0.9985349774360657,
        -0.0023779869079589844
      ],
      "min": [
        0.0023560000117868185,
        -0.9995119571685791
      ],
      "type": "VEC2"
    },
    {
      "bufferView": 0,
      "byteOffset": 4152,
      "componentType": 5125,
      "count": 8616,
      "type": "SCALAR"
    },
    {
      "bufferView": 2,
      "byteOffset": 95448,
      "componentType": 5126,
      "count": 33395,
      "max": [
        5.367187976837158,
        1.088866949081421,
        7.808594226837158
      ],
      "min": [
        -5.367187976837158,
        -1.125,
        -7.808594226837158
      ],
      "type": "VEC3"
    },
    {
      "bufferView": 2,
      "byteOffset": 496188,
      "componentType": 5126,
      "count": 33395,
      "max": [
        1.0,
        1.0,
        1.0
      ],
      "min": [
        -1.0,
        -1.0,
        -1.0
      ],
      "type": "VEC3"
    },
    {
      "bufferView": 3,
      "byteOffset": 60432,
      "componentType": 5126,
      "count": 33395,
      "max": [
        1.0,
        1.0,
        1.0,
        1.0
      ],
      "min": [
        -1.0,
        -1.0,
        -1.0,
        -1.0
      ],
      "type": "VEC4"
    },
    {
      "bufferView": 1,
      "byteOffset": 306960,
      "componentType": 5126,
      "count": 33395,
      "max": [
        0.9990230202674866,
        1.9990229606628418
      ],
      "min": [
        -0.7216799855232239,
        0.00044399499893188477
      ],
      "type": "VEC2"
    },
    {
      "bufferView": 1,
      "byteOffset": 574120,
      "componentType": 5126,
      "count": 33395,
      "max": [
        0.9990230202674866,
        1.9990229606628418
      ],
      "min": [
        -0.7216799855232239,
        0.00044399499893188477
      ],
      "type": "VEC2"
    },
    {
      "bufferView": 1,
      "byteOffset": 841280,
      "componentType": 5126,
      "count": 33395,
      "max": [
        0.9990230202674866,
        1.9990229606628418
      ],
      "min": [
        -0.7216799855232239,
        0.00044399499893188477
      ],
      "type": "VEC2"
    },
    {
      "bufferView": 1,
      "byteOffset": 1108440,
      "componentType": 5126,
      "count": 33395,
      "max": [
        0.9990230202674866,
        1.9990229606628418
      ],
      "min": [
        -0.7216799855232239,
        0.00044399499893188477
      ],
      "type": "VEC2"
    },
    {
      "bufferView": 1,
      "byteOffset": 1375600,
      "componentType": 5126,
      "count": 33395,
      "max": [
        0.9990230202674866,
        1.9990229606628418
      ],
      "min": [
        -0.7216799855232239,
        0.00044399499893188477
      ],
      "type": "VEC2"
    },
    {
      "bufferView": 1,
      "byteOffset": 1642760,
      "componentType": 5126,
      "count": 33395,
      "max": [
        0.9990230202674866,
        1.9990229606628418
      ],
      "min": [
        -0.7216799855232239,
        0.00044399499893188477
      ],
      "type": "VEC2"
    },
    {
      "bufferView": 1,
      "byteOffset": 1909920,
      "componentType": 5126,
      "count": 33395,
      "max": [
        0.9990230202674866,
        1.9990229606628418
      ],
      "min": [
        -0.7216799855232239,
        0.00044399499893188477
      ],
      "type": "VEC2"
    },
    {
      "bufferView": 1,
      "byteOffset": 2177080,
      "componentType": 5126,
      "count": 33395,
      "max": [
        0.9990230202674866,
        1.9990229606628418
      ],
      "min": [
        -0.7216799855232239,
        0.00044399499893188477
      ],
      "type": "VEC2"
    },
    {
      "bufferView": 1,
      "byteOffset": 2444240,
      "componentType": 5126,
      "count": 33395,
      "max": [
        0.9990230202674866,
        1.9990229606628418
      ],
      "min": [
        -0.7216799855232239,
        0.00044399499893188477
      ],
      "type": "VEC2"
    },
    {
      "bufferView": 1,
      "byteOffset": 2711400,
      "componentType": 5126,
      "count": 33395,
      "max": [
        0.9990230202674866,
        1.9990229606628418
      ],
      "min": [
        -0.7216799855232239,
        0.00044399499893188477
      ],
      "type": "VEC2"
    },
    {
      "bufferView": 0,
      "byteOffset": 38616,
      "componentType": 5125,
      "count": 86631,
      "type": "SCALAR"
    },
    {
      "bufferView": 2,
      "byteOffset": 896928,
      "componentType": 5126,
      "count": 7043,
      "max": [
        5.367187976837158,
        2.539062976837158,
        7.808594226837158
      ],
      "min": [
        -5.367187976837158,
        -1.0126949548721313,
        -7.035155773162842
      ],
      "type": "VEC3"
    },
    {
      "bufferView": 2,
      "byteOffset": 981444,
      "componentType": 5126,
      "count": 7043,
      "max": [
        1.0,
        1.0,
        1.0
      ],
      "min": [
        -1.0,
        -1.0,
        -1.0
      ],
      "type": "VEC3"
    },
    {
      "bufferView": 3,
      "byteOffset": 594752,
      "componentType": 5126,
      "count": 7043,
      "max": [
        1.0,
        1.0,
        1.0,
        1.0
      ],
      "min": [
        -1.0,
        -1.0,
        -1.0,
        -1.0
      ],
      "type": "VEC4"
    },
    {
      "bufferView": 1,
      "byteOffset": 2978560,
      "componentType": 5126,
      "count": 7043,
      "max": [
        0.9990230202674866,
        1.9931639432907104
      ],
      "min": [
        -0.9941409826278687,
        0.000308990478515625
      ],
      "type": "VEC2"
    },
    {
      "bufferView": 1,
      "byteOffset": 3034904,
      "componentType": 5126,
      "count": 7043,
      "max": [
        0.9990230202674866,
        1.9931639432907104
      ],
      "min": [
        -0.9941409826278687,
        0.0
      ],
      "type": "VEC2"
    },
    {
      "bufferView": 1,
      "byteOffset": 3091248,
      "componentType": 5126,
      "count": 7043,
      "max": [
        0.9990230202674866,
        1.9931639432907104
      ],
      "min": [
        -0.9941409826278687,
        0.0
      ],
      "type": "VEC2"
    },
    {
      "bufferView": 1,
      "byteOffset": 3147592,
      "componentType": 5126,
      "count": 7043,
      "max": [
        0.9990230202674866,
        1.9931639432907104
      ],
      "min": [
        -0.9941409826278687,
        0.0
      ],
      "type": "VEC2"
    },
    {
      "bufferView": 1,
      "byteOffset": 3203936,
      "componentType": 5126,
      "count": 7043,
      "max": [
        0.9990230202674866,
        1.9931639432907104
      ],
      "min": [
        -0.9941409826278687,
        0.0
      ],
      "type": "VEC2"
    },
    {
      "bufferView": 1,
      "byteOffset": 3260280,
      "componentType": 5126,
      "count": 7043,
      "max": [
        0.9990230202674866,
        1.9931639432907104
      ],
      "min": [
        -0.9941409826278687,
        0.000308990478515625
      ],
      "type": "VEC2"
    },
    {
      "bufferView": 1,
      "byteOffset": 3316624,
      "componentType": 5126,
      "count": 7043,
      "max": [
        0.9990230202674866,
        1.9931639432907104
      ],
      "min": [
        -0.9941409826278687,
        0.0
      ],
      "type": "VEC2"
    },
    {
      "bufferView": 1,
      "byteOffset": 3372968,
      "componentType": 5126,
      "count": 7043,
      "max": [
        0.9990230202674866,
        1.9931639432907104
      ],
      "min": [
        -0.9941409826278687,
        0.000308990478515625
      ],
      "type": "VEC2"
    },
    {
      "bufferView": 1,
      "byteOffset": 3429312,
      "componentType": 5126,
      "count": 7043,
      "max": [
        0.9990230202674866,
        1.9931639432907104
      ],
      "min": [
        -0.9941409826278687,
        0.000308990478515625
      ],
      "type": "VEC2"
    },
    {
      "bufferView": 1,
      "byteOffset": 3485656,
      "componentType": 5126,
      "count": 7043,
      "max": [
        0.9990230202674866,
        1.9931639432907104
      ],
      "min": [
        -0.9941409826278687,
        0.0
      ],
      "type": "VEC2"
    },
    {
      "bufferView": 0,
      "byteOffset": 385140,
      "componentType": 5125,
      "count": 19755,
      "type": "SCALAR"
    },
    {
      "bufferView": 2,
      "byteOffset": 1065960,
      "componentType": 5126,
      "count": 136,
      "max": [
        5.335937976837158,
        1.848633050918579,
        3.082031011581421
      ],
      "min": [
        -5.335937976837158,
        -0.17309600114822388,
        -5.214844226837158
      ],
      "type": "VEC3"
    },
    {
      "bufferView": 2,
      "byteOffset": 1067592,
      "componentType": 5126,
      "count": 136,
      "max": [
        0.986940860748291,
        0.9631037712097168,
        0.8620498180389404
      ],
      "min": [
        -0.9869409203529358,
        -0.9975223541259766,
        -0.876277506351471
      ],
      "type": "VEC3"
    },
    {
      "bufferView": 1,
      "byteOffset": 3542000,
      "componentType": 5126,
      "count": 136,
      "max": [
        0.9233400225639343,
        1.9091800451278687
      ],
      "min": [
        -0.8500980138778687,
        0.09008800983428955
      ],
      "type": "VEC2"
    },
    {
      "bufferView": 0,
      "byteOffset": 464160,
      "componentType": 5125,
      "count": 516,
      "type": "SCALAR"
    },
    {
      "bufferView": 2,
      "byteOffset": 1069224,
      "componentType": 5126,
      "count": 14,
      "max": [
        0.2900390028953552,
        4.941405773162842,
        -0.46899399161338806
      ],
      "min": [
        -0.2902829945087433,
        4.90625,
        -0.7104489803314209
      ],
      "type": "VEC3"
    },
    {
      "bufferView": 2,
      "byteOffset": 1069392,
      "componentType": 5126,
      "count": 14,
      "max": [
        4.451168933883309e-06,
        -0.9878673553466797,
        -0.1551559865474701
      ],
      "min": [
        -1.0829418897628784e-05,
        -0.9878900051116943,
        -0.15529987215995789
      ],
      "type": "VEC3"
    },
    {
      "bufferView": 1,
      "byteOffset": 3543088,
      "componentType": 5126,
      "count": 14,
      "max": [
        0.995606005191803,
        0.7089840173721313
      ],
      "min": [
        0.0041809999383986,
        0.2912600040435791
      ],
      "type": "VEC2"
    },
    {
      "bufferView": 0,
      "byteOffset": 466224,
      "componentType": 5125,
      "count": 36,
      "type": "SCALAR"
    }
  ],
  "asset": {
    "extras": {
      "author": "shangus930 (https://sketchfab.com/shangus930)",
      "license": "CC-BY-SA-4.0 (http://creativecommons.org/licenses/by-sa/4.0/)",
      "source": "https://sketchfab.com/3d-models/f-35e-panther-26ec07daef9b49f9948307ec295317b5",
      "title": "F-35E Panther"
    },
    "generator": "Sketchfab-13.79.0",
    "version": "2.0"
  },
  "bufferViews": [
    {
      "buffer": 0,
      "byteLength": 466368,
      "name": "floatBufferViews",
      "target": 34963
    },
    {
      "buffer": 0,
      "byteLength": 3543200,
      "byteOffset": 466368,
      "byteStride": 8,
      "name": "floatBufferViews",
      "target": 34962
    },
    {
      "buffer": 0,
      "byteLength": 1069560,
      "byteOffset": 4009568,
      "byteStride": 12,
      "name": "floatBufferViews",
      "target": 34962
    },
    {
      "buffer": 0,
      "byteLength": 707440,
      "byteOffset": 5079128,
      "byteStride": 16,
      "name": "floatBufferViews",
      "target": 34962
    }
  ],
  "buffers": [
    {
      "byteLength": 5786568,
      "uri": "scene.bin"
    }
  ],
  "images": [
    {
      "uri": "textures/glass1_baseColor.png"
    },
    {
      "uri": "textures/glass1_metallicRoughness.png"
    },
    {
      "uri": "textures/F35E_cockpit_baseColor.jpeg"
    },
    {
      "uri": "textures/F35E_cockpit_metallicRoughness.png"
    },
    {
      "uri": "textures/F35E_cockpit_normal.png"
    },
    {
      "uri": "textures/F35E_below_baseColor.png"
    },
    {
      "uri": "textures/F35E_below_metallicRoughness.png"
    },
    {
      "uri": "textures/F35E_below_normal.png"
    },
    {
      "uri": "textures/F35E_above_baseColor.png"
    },
    {
      "uri": "textures/F35E_above_metallicRoughness.png"
    },
    {
      "uri": "textures/F35E_above_normal.png"
    },
    {
      "uri": "textures/material_5_baseColor.png"
    }
  ],
  "materials": [
    {
      "doubleSided": true,
      "name": "material_0",
      "pbrMetallicRoughness": {
        "metallicFactor": 0.0,
        "roughnessFactor": 0.6
      }
    },
    {
      "alphaMode": "BLEND",
      "name": "glass1",
      "pbrMetallicRoughness": {
        "baseColorTexture": {
          "index": 0
        },
        "metallicFactor": 0.0,
        "metallicRoughnessTexture": {
          "index": 1
        }
      }
    },
    {
      "doubleSided": true,
      "name": "F35E_cockpit",
      "normalTexture": {
        "index": 4
      },
      "pbrMetallicRoughness": {
        "baseColorTexture": {
          "index": 2
        },
        "metallicRoughnessTexture": {
          "index": 3
        }
      }
    },
    {
      "doubleSided": true,
      "name": "F35E_below",
      "normalTexture": {
        "index": 7
      },
      "pbrMetallicRoughness": {
        "baseColorTexture": {
          "index": 5
        },
        "metallicRoughnessTexture": {
          "index": 6
        }
      }
    },
    {
      "doubleSided": true,
      "name": "F35E_above",
      "normalTexture": {
        "index": 10
      },
      "pbrMetallicRoughness": {
        "baseColorTexture": {
          "index": 8
        },
        "metallicRoughnessTexture": {
          "index": 9
        }
      }
    },
    {
      "doubleSided": true,
      "name": "material_5",
      "pbrMetallicRoughness": {
        "baseColorTexture": {
          "index": 11
        },
        "metallicFactor": 0.0,
        "roughnessFactor": 0.0
      }
    }
  ],
  "meshes": [
    {
      "name": "Object_0",
      "primitives": [
        {
          "attributes": {
            "NORMAL": 1,
            "POSITION": 0,
            "TEXCOORD_0": 2,
            "TEXCOORD_1": 3,
            "TEXCOORD_2": 4
          },
          "indices": 5,
          "material": 1,
          "mode": 4
        }
      ]
    },
    {
      "name": "Object_1",
      "primitives": [
        {
          "attributes": {
            "NORMAL": 7,
            "POSITION": 6,
            "TANGENT": 8,
            "TEXCOORD_0": 9,
            "TEXCOORD_1": 10,
            "TEXCOORD_2": 11,
            "TEXCOORD_3": 12,
            "TEXCOORD_4": 13,
            "TEXCOORD_5": 14,
            "TEXCOORD_6": 15,
            "TEXCOORD_7": 16,
            "TEXCOORD_8": 17,
            "TEXCOORD_9": 18
          },
          "indices": 19,
          "material": 2,
          "mode": 4
        }
      ]
    },
    {
      "name": "Object_2",
      "primitives": [
        {
          "attributes": {
            "NORMAL": 21,
            "POSITION": 20,
            "TANGENT": 22,
            "TEXCOORD_0": 23,
            "TEXCOORD_1": 24,
            "TEXCOORD_2": 25,
            "TEXCOORD_3": 26,
            "TEXCOORD_4": 27,
            "TEXCOORD_5": 28,
            "TEXCOORD_6": 29,
            "TEXCOORD_7": 30,
            "TEXCOORD_8": 31,
            "TEXCOORD_9": 32
          },
          "indices": 33,
          "material": 3,
          "mode": 4
        }
      ]
    },
    {
      "name": "Object_3",
      "primitives": [
        {
          "attributes": {
            "NORMAL": 35,
            "POSITION": 34,
            "TANGENT": 36,
            "TEXCOORD_0": 37,
            "TEXCOORD_1": 38,
            "TEXCOORD_2": 39,
            "TEXCOORD_3": 40,
            "TEXCOORD_4": 41,
            "TEXCOORD_5": 42,
            "TEXCOORD_6": 43,
            "TEXCOORD_7": 44,
            "TEXCOORD_8": 45,
            "TEXCOORD_9": 46
          },
          "indices": 47,
          "material": 4,
          "mode": 4
        }
      ]
    },
    {
      "name": "Object_4",
      "primitives": [
        {
          "attributes": {
            "NORMAL": 49,
            "POSITION": 48,
            "TEXCOORD_0": 50
          },
          "indices": 51,
          "material": 5,
          "mode": 4
        }
      ]
    },
    {
      "name": "Object_5",
      "primitives": [
        {
          "attributes": {
            "NORMAL": 53,
            "POSITION": 52,
            "TEXCOORD_0": 54
          },
          "indices": 55,
          "material": 0,
          "mode": 4
        }
      ]
    }
  ],
  "nodes": [
    {
      "children": [
        1
      ],
      "matrix": [
        1.0,
        0.0,
        0.0,
        0.0,
        0.0,
        2.220446049250313e-16,
        -1.0,
        0.0,
        0.0,
        1.0,
        2.220446049250313e-16,
        0.0,
        0.0,
        0.0,
        0.0,
        1.0
      ],
      "name": "Sketchfab_model"
    },
    {
      "children": [
        2
      ],
      "name": "root"
    },
    {
      "children": [
        3,
        5,
        7,
        9,
        11,
        13
      ],
      "matrix": [
        1.0,
        0.0,
        0.0,
        0.0,
        0.0,
        2.220446049250313e-16,
        1.0,
        0.0,
        0.0,
        -1.0,
        2.220446049250313e-16,
        0.0,
        0.0,
        0.0,
        0.0,
        1.0
      ],
      "name": "GLTF_SceneRootNode"
    },
    {
      "children": [
        4
      ],
      "name": "cnp_0"
    },
    {
      "mesh": 0,
      "name": "Object_4"
    },
    {
      "children": [
        6
      ],
      "name": "cpt_1"
    },
    {
      "mesh": 1,
      "name": "Object_6"
    },
    {
      "children": [
        8
      ],
      "name": "blw_2"
    },
    {
      "mesh": 2,
      "name": "Object_8"
    },
    {
      "children": [
        10
      ],
      "name": "abv_3"
    },
    {
      "mesh": 3,
      "name": "Object_10"
    },
    {
      "children": [
        12
      ],
      "name": "lgt_4"
    },
    {
      "mesh": 4,
      "name": "Object_12"
    },
    {
      "children": [
        14
      ],
      "matrix": [
        1.0,
        0.0,
        0.0,
        0.0,
        0.0,
        -1.685873969314855e-07,
        0.9999999999999858,
        0.0,
        0.0,
        -0.9999999999999858,
        -1.685873969314855e-07,
        0.0,
        0.0,
        0.0,
        0.0,
        1.0
      ],
      "name": "dis_5"
    },
    {
      "mesh": 5,
      "name": "Object_14"
    }
  ],
  "samplers": [
    {
      "magFilter": 9729,
      "minFilter": 9987,
      "wrapS": 10497,
      "wrapT": 10497
    }
  ],
  "scene": 0,
  "scenes": [
    {
      "name": "Sketchfab_Scene",
      "nodes": [
        0
      ]
    }
  ],
  "textures": [
    {
      "sampler": 0,
      "source": 0
    },
    {
      "sampler": 0,
      "source": 1
    },
    {
      "sampler": 0,
      "source": 2
    },
    {
      "sampler": 0,
      "source": 3
    },
    {
      "sampler": 0,
      "source": 4
    },
    {
      "sampler": 0,
      "source": 5
    },
    {
      "sampler": 0,
      "source": 6
    },
    {
      "sampler": 0,
      "source": 7
    },
    {
      "sampler": 0,
      "source": 8
    },
    {
      "sampler": 0,
      "source": 9
    },
    {
      "sampler": 0,
      "source": 10
    },
    {
      "sampler": 0,
      "source": 11
    }
  ]
}
